<?xml version="1.0" encoding="utf-8"?>
<svg viewBox="588.624 566.666 420.112 334.811" xmlns="http://www.w3.org/2000/svg">
    <path id="path74" style="fill:#ED3069;fill-opacity:1;fill-rule:nonzero;stroke:none"
          d="M 6328.13,6740.89 H 6196.9 c 0,187.64 152.66,340.29 340.3,340.29 58.49,0 116.21,-15.1 166.91,-43.68 l -64.44,-114.33 c -31.08,17.52 -66.51,26.79 -102.47,26.79 -115.28,0 -209.07,-93.8 -209.07,-209.07"
          transform="matrix(0.133333, 0, 0, -0.133333, 0, 1600)"/>
    <path id="path76" style="fill:#ED3069;fill-opacity:1;fill-rule:nonzero;stroke:none"
          d="m 5769.17,6740.89 h -131.24 c 0,115.27 -93.78,209.07 -209.07,209.07 -35.96,0 -71.39,-9.27 -102.47,-26.79 l -64.44,114.33 c 50.71,28.58 108.42,43.68 166.91,43.68 187.64,0 340.31,-152.65 340.31,-340.29"
          transform="matrix(0.133333, 0, 0, -0.133333, 0, 1600)"/>
    <path id="path78" style="fill:#ED3069;fill-opacity:1;fill-rule:nonzero;stroke:none"
          d="m 7489.75,6584.79 c -130.16,0 -220.05,29.6 -269.59,88.89 -49.55,59.25 -74.32,146.18 -74.32,260.85 0,11.65 0,27.18 0,46.62 0,21.37 0.5,43.22 1.45,65.58 1.01,22.31 1.46,43.22 1.46,62.66 0,19.4 0,34.98 0,46.64 0,75.77 -8.24,144.71 -24.77,206.92 -16.48,62.16 -48.09,117.54 -94.72,166.12 -46.63,48.55 -110.75,90.81 -192.35,126.79 -81.61,35.93 -188.44,65.58 -320.59,88.89 l -34.98,-148.64 c 103.01,-27.23 184.11,-54.42 243.36,-81.61 59.29,-27.22 104.92,-58.79 136.98,-94.71 32.06,-35.98 52.46,-77.24 61.2,-123.87 8.75,-46.63 13.12,-103.01 13.12,-169.05 0,-29.14 -0.46,-65.11 -1.46,-107.83 -0.96,-42.75 -1.45,-79.68 -1.45,-110.74 0,-122.41 27.23,-214.22 81.6,-275.42 54.42,-61.21 128.23,-106.38 221.5,-135.53 -48.55,-15.57 -91.81,-34.51 -129.7,-56.82 -37.88,-22.37 -69.44,-49.55 -94.72,-81.61 -25.22,-32.05 -44.67,-70.45 -58.28,-115.12 -13.57,-44.72 -20.4,-97.18 -20.4,-157.38 0,-31.11 0.49,-68.04 1.45,-110.76 1,-42.75 1.46,-78.68 1.46,-107.83 0,-66.07 -4.37,-122.4 -13.12,-169.03 -8.74,-46.64 -29.14,-87.9 -61.2,-123.87 -32.06,-35.94 -77.69,-67.99 -136.98,-96.18 -59.25,-28.14 -376.53,-141.89 -478.83,-73.99 -95.41,63.32 -131.55,217.09 -159.41,378.27 230.43,20.41 443.88,116.21 594.41,268.7 20.54,20.8 26.53,51.67 15.25,78.66 -11.29,27.02 -37.5,44.48 -66.77,44.48 h -417.18 v -131.23 h 251.27 c -129.33,-83.25 -288.27,-130.65 -454.85,-133.36 -17.48,-0.28 -34.12,-7.59 -46.24,-20.19 -12.11,-12.61 -18.69,-29.6 -18.29,-47.07 0.08,-3.05 0.36,-6.1 0.85,-9.1 35,-213.34 71.18,-433.95 228.29,-538.44 56.79,-37.77 123.4,-56.56 201.5,-56.56 132.23,0 380.6,64.01 462.21,99.94 81.6,35.97 145.72,78.23 192.35,126.77 46.63,48.6 78.24,103.97 94.72,166.13 16.53,62.17 24.77,131.15 24.77,206.93 0,11.65 0,27.19 0,46.63 0,19.4 -0.45,39.8 -1.46,61.2 -0.95,21.36 -1.45,42.72 -1.45,64.12 0,21.36 0,37.89 0,49.55 0,112.66 24.77,199.14 74.32,259.38 49.54,60.21 139.43,90.35 269.59,90.35 h 75.77 v 174.87 h -75.77"
          transform="matrix(0.133333, 0, 0, -0.133333, 0, 1600)"/>
    <path id="path80" style="fill:#ED3069;fill-opacity:1;fill-rule:nonzero;stroke:none"
          d="m 6061.9,6112.88 c -8.17,148.12 -5.98,311.04 -3.85,468.58 6.11,454.31 9.95,881.2 -207.27,1072.08 -147.24,129.37 -386.9,91.21 -386.9,91.21 -132.15,-23.31 -238.98,-52.96 -320.59,-88.89 -81.6,-35.98 -145.72,-78.24 -192.35,-126.79 -46.63,-48.58 -78.23,-103.96 -94.72,-166.12 -16.53,-62.21 -24.77,-131.15 -24.77,-206.92 0,-11.66 0,-27.24 0,-46.64 0,-19.44 0.45,-40.35 1.46,-62.66 0.95,-22.36 1.45,-44.21 1.45,-65.58 0,-19.44 0,-34.97 0,-46.62 0,-114.67 -24.77,-201.6 -74.32,-260.85 -49.54,-59.29 -139.43,-88.89 -269.59,-88.89 h -75.77 v -174.87 h 75.77 c 130.16,0 220.05,-30.14 269.59,-90.35 49.55,-60.24 74.32,-146.72 74.32,-259.38 0,-11.66 0,-28.19 0,-49.55 0,-21.4 -0.5,-42.76 -1.45,-64.12 -1.01,-21.4 -1.46,-41.8 -1.46,-61.2 0,-19.44 0,-34.98 0,-46.63 0,-75.78 8.24,-144.76 24.77,-206.93 16.49,-62.16 48.09,-117.53 94.72,-166.13 46.63,-48.54 110.75,-90.8 192.35,-126.77 81.61,-35.93 188.44,-65.58 320.59,-88.89 l 34.98,148.63 c -103.01,25.28 -184.11,52.01 -243.36,80.15 -59.29,28.19 -104.92,60.24 -136.98,96.18 -32.06,35.97 -52.46,77.23 -61.2,123.87 -8.75,46.63 -13.12,102.96 -13.12,169.03 0,29.15 0.46,65.08 1.46,107.83 0.96,42.72 1.46,79.65 1.46,110.76 0,60.2 -6.83,112.66 -20.41,157.38 -13.61,44.67 -33.06,83.07 -58.28,115.12 -25.28,32.06 -56.84,59.24 -94.72,81.61 -37.89,22.31 -81.15,41.25 -129.7,56.82 93.27,29.15 167.08,74.32 221.5,135.53 54.37,61.2 81.61,153.01 81.61,275.42 0,31.06 -0.5,67.99 -1.46,110.74 -1,42.72 -1.46,78.69 -1.46,107.83 0,66.04 4.37,122.42 13.12,169.05 8.74,46.63 29.14,87.89 61.2,123.87 32.06,35.92 81.12,61.01 136.98,94.71 145.04,87.51 446.07,94.31 509.66,39.58 172.73,-148.69 167.11,-566.65 161.67,-970.85 -1.83,-135.88 -3.71,-275.69 0.94,-408.36 h -564.94 c -28.85,0 -54.91,-17.11 -66.39,-43.6 -11.46,-26.45 -6.14,-57.13 13.56,-78.16 118.73,-126.65 281.88,-214.11 471.8,-252.91 l 26.27,128.57 c -104.49,21.36 -201.4,60.93 -283.53,114.87 h 471.85 c 18.02,0 35.26,7.42 47.65,20.52 12.4,13.1 18.86,30.71 17.86,48.72"
          transform="matrix(0.133333, 0, 0, -0.133333, 0, 1600)"/>
</svg>